<svg width="167" height="165" viewBox="0 0 167 165" fill="none" xmlns="http://www.w3.org/2000/svg">
<rect width="167" height="165" rx="8" fill="#313131"/>
<path d="M74.3903 139.375V144.906H76.7184V145.938H74.3903V153.297H73.1716V139.375H74.3903ZM70.4997 140.672V145.641H65.4372V148.891C68.0153 148.891 69.8122 148.805 71.9216 148.406L72.0466 149.422C69.8591 149.828 67.9997 149.922 65.3278 149.938H64.2184V144.625H69.2809V141.688H64.1872V140.672H70.4997ZM89.8516 146.438V147.453H84.2109V150.297H82.9766V147.453H77.1328V146.438H89.8516ZM88.4297 151.922V152.969H78.7734V148.906H80.0078V151.922H88.4297ZM83.4766 139.734C86.4453 139.75 88.3672 140.812 88.3672 142.531C88.3672 144.25 86.4453 145.297 83.4766 145.297C80.5078 145.297 78.5703 144.25 78.5703 142.531C78.5703 140.812 80.5078 139.75 83.4766 139.734ZM83.4766 140.734C81.3203 140.734 79.8672 141.422 79.8828 142.531C79.8672 143.609 81.3203 144.297 83.4766 144.297C85.6328 144.297 87.0703 143.609 87.0703 142.531C87.0703 141.422 85.6328 140.734 83.4766 140.734ZM101.875 146.062V147.078H92.2816V140.672H101.735V141.688H93.5003V146.062H101.875ZM103.375 150.344V151.375H90.6566V150.344H103.375Z" fill="#BBBBBB"/>
<g clip-path="url(#clip0_8413_117517)">
<path d="M82.5 109C94.9263 109 105 100.26 105 79.0179L105 36L60 36L60 79.0179C60 100.253 70.0737 109 82.5 109Z" stroke="#5F5F5F" stroke-miterlimit="10"/>
<path d="M67.115 95.7062C67.136 96.4169 67.1569 97.1169 67.1883 97.8277C67.1883 98 67.1987 98.1831 67.2092 98.3554C67.2405 98.8723 67.2719 99.3892 67.3138 99.8954C67.387 100.682 67.4916 101.468 67.6484 102.243C67.8053 103.008 68.004 103.772 68.276 104.494C68.4852 105.054 68.7257 105.592 69.0186 106.109C69.3114 106.626 69.6356 107.1 70.0017 107.552C70.3677 107.994 70.7861 108.403 71.2254 108.769C71.6646 109.135 72.1457 109.469 72.6373 109.76C73.2648 110.126 73.9237 110.438 74.614 110.697C75.3043 110.955 76.0051 111.171 76.7267 111.354C77.7621 111.602 78.8185 111.785 79.8853 111.882C80.7743 111.978 81.6424 112 82.5209 112C83.389 112 84.2675 111.978 85.1356 111.892C86.2024 111.785 87.2692 111.612 88.2942 111.365C89.0159 111.192 89.7271 110.977 90.4069 110.708C91.0972 110.449 91.7561 110.137 92.3836 109.771C92.8856 109.48 93.3563 109.146 93.7955 108.78C94.2348 108.414 94.6532 108.005 95.0192 107.563C95.3853 107.122 95.72 106.637 96.0024 106.12C96.2952 105.603 96.5358 105.065 96.7449 104.505C97.0169 103.783 97.2156 103.029 97.3725 102.254C97.5294 101.478 97.6339 100.692 97.7072 99.9062C97.749 99.3892 97.7804 98.8723 97.8117 98.3662C97.8117 98.1938 97.8222 98.0108 97.8327 97.8385C97.864 97.1277 97.885 96.4277 97.9059 95.7169C97.9582 93.7354 97.9791 91.7646 98 89.7831C98 87.7477 98 85.7015 97.9477 83.6662C97.8954 81.62 97.8013 79.5846 97.6967 77.5492C97.613 76.8492 97.5293 76.1385 97.3515 75.4923C97.1737 74.8354 96.8914 74.2323 96.5462 73.7046C96.2011 73.1661 95.7827 72.7138 95.3121 72.3262C94.946 72.0246 94.5381 71.7662 94.1198 71.5508C93.691 71.3354 93.2517 71.1523 92.7915 70.9908C92.0594 70.7431 91.275 70.5708 90.4801 70.4415C89.6748 70.3123 88.8485 70.2262 88.0118 70.1615C87.1123 70.0969 86.2024 70.0538 85.282 70.0323C84.3617 70.0108 83.4308 70 82.5 70C81.5692 70 80.6383 70 79.7179 70.0323C78.7976 70.0646 77.8876 70.0969 76.9882 70.1615C76.1515 70.2262 75.3252 70.3123 74.5199 70.4415C73.7146 70.5708 72.9406 70.7431 72.2085 70.9908C71.7483 71.1415 71.2986 71.3246 70.8802 71.5508C70.4619 71.7662 70.054 72.0246 69.6879 72.3262C69.2173 72.7138 68.7989 73.1662 68.4538 73.7046C68.1086 74.2323 67.8367 74.8354 67.6484 75.4923C67.4706 76.1492 67.387 76.8492 67.3033 77.5492C67.2092 79.5846 67.1046 81.6308 67.0523 83.6662C67 85.7015 67 87.7477 67 89.7831C67.0209 91.7646 67.0314 93.7354 67.0941 95.7169L67.115 95.7062Z" fill="#FFEEF2"/>
</g>
<defs>
<clipPath id="clip0_8413_117517">
<rect width="47" height="90" fill="white" transform="translate(59 37)"/>
</clipPath>
</defs>
</svg>
